<?xml version="1.0" encoding="UTF-8"?> <svg xmlns="http://www.w3.org/2000/svg" width="36" height="32" viewBox="0 0 36 32" fill="none"><path fill-rule="evenodd" clip-rule="evenodd" d="M9.65658 0.0534451C4.86603 0.669019 0.988374 4.41703 0.150161 9.24207C0.0177504 10.0041 -0.0156339 10.5226 0.00614664 11.4783C0.03709 12.837 0.226693 13.8859 0.656596 15.077C0.838689 15.5814 1.29236 16.5312 1.41531 16.6654C1.63195 16.9018 2.04867 16.9884 2.35296 16.8602C2.45252 16.8183 4.48517 14.7714 9.4345 9.72887C13.2525 5.83897 16.4253 2.57972 16.485 2.48611C16.5765 2.34275 16.5936 2.27666 16.5936 2.06745C16.5936 1.56292 16.4397 1.40467 15.5421 0.986283C14.6613 0.575747 13.6004 0.254731 12.5755 0.0886328C12.0271 -0.000236236 10.2419 -0.0217547 9.65658 0.0534451ZM23.7024 0.0553979C21.7878 0.291986 19.9339 1.05459 18.3774 2.24592C18.0526 2.49441 2.82207 18.0186 2.73416 18.1906C2.64178 18.3714 2.63615 18.7485 2.72327 18.9216C2.96657 19.4048 4.40368 21.4074 5.2429 22.4327C6.20012 23.6021 7.35243 24.8381 8.49793 25.9242C9.13419 26.5275 9.22495 26.5806 9.58801 26.5619C9.8273 26.5496 9.87548 26.5331 10.0421 26.407C10.1446 26.3294 15.1833 21.2122 21.2392 15.0355C29.9314 6.16979 32.2659 3.76871 32.3258 3.63271C32.4325 3.39026 32.4262 3.12025 32.308 2.87849C32.2325 2.72392 32.1334 2.62062 31.8292 2.3792C30.1796 1.07002 28.3411 0.296734 26.2988 0.0531388C25.6965 -0.0186916 24.2922 -0.0174663 23.7024 0.0553979ZM33.0605 4.59231C32.9605 4.64278 29.25 8.39867 21.9692 15.8191C13.0365 24.9231 11.0118 27.0051 10.9385 27.1614C10.7898 27.4788 10.8343 27.8609 11.047 28.0929C11.2535 28.318 12.9197 29.5082 13.9098 30.1377C15.1535 30.9285 16.6818 31.7634 17.1194 31.8912C17.5222 32.0087 18.2071 32.0354 18.6216 31.9498C19.033 31.8648 19.248 31.7727 20.0224 31.35C22.5366 29.9775 24.8602 28.3226 27.052 26.3435C27.683 25.7738 29.3745 24.0488 29.9296 23.409C31.7754 21.2816 33.3675 18.9905 34.6164 16.6645C35.5261 14.9703 35.9496 13.3733 35.996 11.4628C36.0344 9.87809 35.7997 8.48655 35.2568 7.08107C34.9428 6.2683 34.3467 5.1444 34.0416 4.79008C33.809 4.51995 33.3763 4.43272 33.0605 4.59231Z" fill="#6e0f14"></path></svg> 