<?xml version="1.0" encoding="UTF-8"?> <svg xmlns="http://www.w3.org/2000/svg" width="44" height="34" viewBox="0 0 44 34" fill="none"><path fill-rule="evenodd" clip-rule="evenodd" d="M2.81854 14.6368C13.8244 9.83859 21.1633 6.67534 24.8354 5.14701C35.3198 0.783317 37.4984 0.0252972 38.9184 0.000266879C39.2307 -0.00523825 39.929 0.0722115 40.3813 0.439484C40.7633 0.749602 40.8684 1.16853 40.9186 1.46255C40.9689 1.75658 41.0316 2.42638 40.9818 2.94974C40.4136 8.9233 37.9552 23.4196 36.7045 30.11C36.1753 32.941 35.1333 33.8903 34.1244 33.9832C31.932 34.185 30.2672 32.5333 28.1438 31.1405C24.821 28.9609 22.9438 27.6042 19.7185 25.4773C15.9911 23.0194 18.4074 21.6685 20.5317 19.4607C21.0876 18.883 30.7474 10.0909 30.9343 9.29336C30.9577 9.19361 30.9794 8.82179 30.7587 8.62546C30.5379 8.42912 30.2121 8.49626 29.977 8.54966C29.6437 8.62534 24.3356 12.1361 14.0525 19.082C12.5458 20.1173 11.181 20.6217 9.95828 20.5953C8.6103 20.5662 6.01732 19.8326 4.0897 19.2056C1.7254 18.4366 -0.153695 18.03 0.00993263 16.7239C0.0951598 16.0437 1.03136 15.3479 2.81854 14.6368Z" fill="#6e0f14"></path></svg> 