<?xml version="1.0" encoding="UTF-8"?> <svg xmlns="http://www.w3.org/2000/svg" width="42" height="30" viewBox="0 0 42 30" fill="none"><path d="M41.5816 6.4732C41.5816 6.4732 41.1715 3.53235 39.9082 2.24104C38.3086 0.541516 36.5203 0.533185 35.7 0.433213C29.8266 -2.38352e-07 21.0082 0 21.0082 0H20.9918C20.9918 0 12.1734 -2.38352e-07 6.3 0.433213C5.47969 0.533185 3.69141 0.541516 2.0918 2.24104C0.828516 3.53235 0.426562 6.4732 0.426562 6.4732C0.426562 6.4732 0 9.93057 0 13.3796V16.6121C0 20.0611 0.418359 23.5185 0.418359 23.5185C0.418359 23.5185 0.828515 26.4593 2.08359 27.7506C3.6832 29.4502 5.7832 29.3918 6.71836 29.5751C10.0816 29.9 21 30 21 30C21 30 29.8266 29.9833 35.7 29.5585C36.5203 29.4585 38.3086 29.4502 39.9082 27.7506C41.1715 26.4593 41.5816 23.5185 41.5816 23.5185C41.5816 23.5185 42 20.0694 42 16.6121V13.3796C42 9.93057 41.5816 6.4732 41.5816 6.4732ZM16.6605 20.536V8.54763L28.0055 14.5626L16.6605 20.536Z" fill="#6e0f14"></path></svg> 